<?xml version="1.0" encoding="UTF-8" standalone="no"?>
<!-- Created with Inkscape (http://www.inkscape.org/) -->

<svg
   xmlns:dc="http://purl.org/dc/elements/1.1/"
   xmlns:cc="http://creativecommons.org/ns#"
   xmlns:rdf="http://www.w3.org/1999/02/22-rdf-syntax-ns#"
   xmlns:svg="http://www.w3.org/2000/svg"
   xmlns="http://www.w3.org/2000/svg"
   xmlns:xlink="http://www.w3.org/1999/xlink"
   xmlns:sodipodi="http://sodipodi.sourceforge.net/DTD/sodipodi-0.dtd"
   xmlns:inkscape="http://www.inkscape.org/namespaces/inkscape"
   version="1.0"
   width="47"
   height="40"
   id="svg2"
   inkscape:version="0.48.4 r9939"
   sodipodi:docname="Gnome-audio-volume-muted.svg">
  <metadata
     id="metadata3577">
    <rdf:RDF>
      <cc:Work
         rdf:about="">
        <dc:format>image/svg+xml</dc:format>
        <dc:type
           rdf:resource="http://purl.org/dc/dcmitype/StillImage" />
        <dc:title></dc:title>
      </cc:Work>
    </rdf:RDF>
  </metadata>
  <sodipodi:namedview
     pagecolor="#ffffff"
     bordercolor="#666666"
     borderopacity="1"
     objecttolerance="10"
     gridtolerance="10"
     guidetolerance="10"
     inkscape:pageopacity="0"
     inkscape:pageshadow="2"
     inkscape:window-width="971"
     inkscape:window-height="480"
     id="namedview3575"
     showgrid="false"
     inkscape:zoom="4.9166667"
     inkscape:cx="-0.30508475"
     inkscape:cy="24"
     inkscape:window-x="194"
     inkscape:window-y="90"
     inkscape:window-maximized="0"
     inkscape:current-layer="svg2" />
  <defs
     id="defs4">
    <linearGradient
       id="linearGradient6700">
      <stop
         id="stop6702"
         style="stop-color:#ffffff;stop-opacity:1"
         offset="0" />
      <stop
         id="stop6704"
         style="stop-color:#ffffff;stop-opacity:0"
         offset="1" />
    </linearGradient>
    <linearGradient
       id="linearGradient6628">
      <stop
         id="stop6630"
         style="stop-color:#000000;stop-opacity:1"
         offset="0" />
      <stop
         id="stop6632"
         style="stop-color:#000000;stop-opacity:0"
         offset="1" />
    </linearGradient>
    <linearGradient
       id="linearGradient6546">
      <stop
         id="stop6548"
         style="stop-color:#555753;stop-opacity:1"
         offset="0" />
      <stop
         id="stop6550"
         style="stop-color:#888a85;stop-opacity:1"
         offset="1" />
    </linearGradient>
    <linearGradient
       id="linearGradient6667">
      <stop
         id="stop6669"
         style="stop-color:#babdb6;stop-opacity:1"
         offset="0" />
      <stop
         id="stop6671"
         style="stop-color:#555753;stop-opacity:1"
         offset="1" />
    </linearGradient>
    <linearGradient
       id="linearGradient6651">
      <stop
         id="stop6653"
         style="stop-color:#ffffff;stop-opacity:1"
         offset="0" />
      <stop
         id="stop6655"
         style="stop-color:#ffffff;stop-opacity:0"
         offset="1" />
    </linearGradient>
    <linearGradient
       id="linearGradient6643">
      <stop
         id="stop6645"
         style="stop-color:#555753;stop-opacity:1"
         offset="0" />
      <stop
         id="stop6647"
         style="stop-color:#d3d7cf;stop-opacity:1"
         offset="1" />
    </linearGradient>
    <linearGradient
       id="linearGradient6633">
      <stop
         id="stop6635"
         style="stop-color:#eeeeec;stop-opacity:1"
         offset="0" />
      <stop
         id="stop6637"
         style="stop-color:#61635f;stop-opacity:1"
         offset="1" />
    </linearGradient>
    <linearGradient
       id="linearGradient6627">
      <stop
         id="stop6629"
         style="stop-color:#555753;stop-opacity:1"
         offset="0" />
      <stop
         id="stop6631"
         style="stop-color:#babdb6;stop-opacity:1"
         offset="1" />
    </linearGradient>
    <linearGradient
       id="linearGradient6607">
      <stop
         id="stop6609"
         style="stop-color:#eeeeec;stop-opacity:1"
         offset="0" />
      <stop
         id="stop6611"
         style="stop-color:#babdb6;stop-opacity:1"
         offset="1" />
    </linearGradient>
    <linearGradient
       id="linearGradient6589">
      <stop
         id="stop6591"
         style="stop-color:#babdb6;stop-opacity:1"
         offset="0" />
      <stop
         id="stop6593"
         style="stop-color:#555753;stop-opacity:1"
         offset="1" />
    </linearGradient>
    <linearGradient
       id="linearGradient6573">
      <stop
         id="stop6575"
         style="stop-color:#ffffff;stop-opacity:1"
         offset="0" />
      <stop
         id="stop6577"
         style="stop-color:#ffffff;stop-opacity:0"
         offset="1" />
    </linearGradient>
    <linearGradient
       id="linearGradient6531">
      <stop
         id="stop6533"
         style="stop-color:#ffffff;stop-opacity:1"
         offset="0" />
      <stop
         id="stop6535"
         style="stop-color:#ffffff;stop-opacity:0"
         offset="1" />
    </linearGradient>
    <linearGradient
       id="linearGradient5533">
      <stop
         id="stop5535"
         style="stop-color:#555753;stop-opacity:1"
         offset="0" />
      <stop
         id="stop5537"
         style="stop-color:#babdb6;stop-opacity:1"
         offset="1" />
    </linearGradient>
    <linearGradient
       id="linearGradient21662">
      <stop
         id="stop21664"
         style="stop-color:#3465a4;stop-opacity:0"
         offset="0" />
      <stop
         id="stop21666"
         style="stop-color:#3465a4;stop-opacity:0"
         offset="0.81927711" />
      <stop
         id="stop21668"
         style="stop-color:#3465a4;stop-opacity:1"
         offset="1" />
    </linearGradient>
    <linearGradient
       id="linearGradient21644">
      <stop
         id="stop21646"
         style="stop-color:#3465a4;stop-opacity:0"
         offset="0" />
      <stop
         id="stop21648"
         style="stop-color:#3465a4;stop-opacity:0"
         offset="0.73493975" />
      <stop
         id="stop21650"
         style="stop-color:#3465a4;stop-opacity:1"
         offset="1" />
    </linearGradient>
    <linearGradient
       id="linearGradient21622">
      <stop
         id="stop21624"
         style="stop-color:#3465a4;stop-opacity:0"
         offset="0" />
      <stop
         id="stop21630"
         style="stop-color:#3465a4;stop-opacity:0"
         offset="0.85542166" />
      <stop
         id="stop21626"
         style="stop-color:#3465a4;stop-opacity:1"
         offset="1" />
    </linearGradient>
    <linearGradient
       id="linearGradient17123">
      <stop
         id="stop17125"
         style="stop-color:#000000;stop-opacity:1"
         offset="0" />
      <stop
         id="stop17127"
         style="stop-color:#000000;stop-opacity:0"
         offset="1" />
    </linearGradient>
    <linearGradient
       id="linearGradient9086">
      <stop
         id="stop9088"
         style="stop-color:#000000;stop-opacity:1"
         offset="0" />
      <stop
         id="stop9090"
         style="stop-color:#000000;stop-opacity:0"
         offset="1" />
    </linearGradient>
    <linearGradient
       id="linearGradient6387">
      <stop
         id="stop6389"
         style="stop-color:#ffffff;stop-opacity:1"
         offset="0" />
      <stop
         id="stop6391"
         style="stop-color:#ffffff;stop-opacity:0"
         offset="1" />
    </linearGradient>
    <linearGradient
       id="linearGradient6379">
      <stop
         id="stop6381"
         style="stop-color:#ffffff;stop-opacity:0"
         offset="0" />
      <stop
         id="stop21606"
         style="stop-color:#ffffff;stop-opacity:1"
         offset="0.5" />
      <stop
         id="stop6383"
         style="stop-color:#ffffff;stop-opacity:0"
         offset="1" />
    </linearGradient>
    <linearGradient
       id="linearGradient2793">
      <stop
         id="stop2795"
         style="stop-color:#babdb6;stop-opacity:1"
         offset="0" />
      <stop
         id="stop2801"
         style="stop-color:#eeeeec;stop-opacity:1"
         offset="0.25301206" />
      <stop
         id="stop2797"
         style="stop-color:#555753;stop-opacity:1"
         offset="1" />
    </linearGradient>
    <linearGradient
       x1="17.25"
       y1="18.81151"
       x2="16.1875"
       y2="32.629498"
       id="linearGradient6393"
       xlink:href="#linearGradient6387"
       gradientUnits="userSpaceOnUse"
       gradientTransform="translate(-28,0)" />
    <radialGradient
       cx="7.1396246"
       cy="22.5"
       r="6"
       fx="7.1396246"
       fy="22.5"
       id="radialGradient8199"
       xlink:href="#linearGradient9086"
       gradientUnits="userSpaceOnUse"
       gradientTransform="matrix(1.914836,-0.506192,0.654838,2.477012,-48.62381,-29.61876)" />
    <radialGradient
       cx="20.84375"
       cy="21.84375"
       r="2.9063251"
       fx="20.84375"
       fy="21.84375"
       id="radialGradient21684"
       xlink:href="#linearGradient21622"
       gradientUnits="userSpaceOnUse" />
    <radialGradient
       cx="20.84375"
       cy="21.84375"
       r="2.9063251"
       fx="20.84375"
       fy="21.84375"
       id="radialGradient21686"
       xlink:href="#linearGradient21662"
       gradientUnits="userSpaceOnUse" />
    <radialGradient
       cx="20.84375"
       cy="21.84375"
       r="2.9063251"
       fx="20.84375"
       fy="21.84375"
       id="radialGradient21688"
       xlink:href="#linearGradient21644"
       gradientUnits="userSpaceOnUse" />
    <linearGradient
       x1="78.5"
       y1="-4.0065207"
       x2="78.5"
       y2="14.00099"
       id="linearGradient5545"
       xlink:href="#linearGradient2793"
       gradientUnits="userSpaceOnUse"
       gradientTransform="matrix(0.90625,0,0,1,-65.921875,19)" />
    <linearGradient
       x1="80.0625"
       y1="14"
       x2="80.0625"
       y2="-4.0087729"
       id="linearGradient5547"
       xlink:href="#linearGradient5533"
       gradientUnits="userSpaceOnUse"
       gradientTransform="matrix(0.90625,0,0,1,-65.921875,19)" />
    <linearGradient
       x1="3.8448932"
       y1="15.561477"
       x2="3.8448932"
       y2="39.884338"
       id="linearGradient6537"
       xlink:href="#linearGradient6531"
       gradientUnits="userSpaceOnUse" />
    <linearGradient
       x1="7.75"
       y1="33.046577"
       x2="4.6431866"
       y2="12.063652"
       id="linearGradient6545"
       xlink:href="#linearGradient6627"
       gradientUnits="userSpaceOnUse"
       gradientTransform="matrix(0.9114584,0,0,0.8787879,2.7005208,4.6666545)" />
    <radialGradient
       cx="9.3203983"
       cy="18.817093"
       r="12.5"
       fx="9.3203983"
       fy="18.817093"
       id="radialGradient6553"
       xlink:href="#linearGradient6633"
       gradientUnits="userSpaceOnUse"
       gradientTransform="matrix(0.7132478,0.5221478,-0.9280778,1.1784895,22.517143,-6.7083001)" />
    <linearGradient
       x1="12.197592"
       y1="9.2597418"
       x2="12.197592"
       y2="47.496857"
       id="linearGradient6579"
       xlink:href="#linearGradient6573"
       gradientUnits="userSpaceOnUse" />
    <radialGradient
       cx="23.164974"
       cy="30.23279"
       r="8.1890125"
       fx="23.164974"
       fy="30.23279"
       id="radialGradient6595"
       xlink:href="#linearGradient6667"
       gradientUnits="userSpaceOnUse"
       gradientTransform="matrix(1.7346265,-0.1698771,0.327755,3.6175226,-27.429343,-73.69679)" />
    <radialGradient
       cx="20.8839"
       cy="20.434256"
       r="3.9999843"
       fx="20.8839"
       fy="20.434256"
       id="radialGradient6603"
       xlink:href="#linearGradient6589"
       gradientUnits="userSpaceOnUse"
       gradientTransform="matrix(1.3093938,0,0,1.5604932,-8.3886376,-9.784483)" />
    <linearGradient
       x1="20.226221"
       y1="20.33363"
       x2="11.4375"
       y2="21.75"
       id="linearGradient6641"
       xlink:href="#linearGradient6379"
       gradientUnits="userSpaceOnUse"
       gradientTransform="matrix(0.6666667,0,0,1,2,-1)" />
    <radialGradient
       cx="23.986883"
       cy="27.053167"
       r="7.75"
       fx="23.986883"
       fy="27.053167"
       id="radialGradient6657"
       xlink:href="#linearGradient6651"
       gradientUnits="userSpaceOnUse"
       gradientTransform="matrix(-0.2432942,0,0,-1.2543129,25.221399,61.870636)" />
    <linearGradient
       x1="80.693359"
       y1="31.561478"
       x2="77.125"
       y2="14"
       id="linearGradient6558"
       xlink:href="#linearGradient6546"
       gradientUnits="userSpaceOnUse"
       gradientTransform="translate(-70,2)" />
    <radialGradient
       cx="30.685316"
       cy="42.261425"
       r="8.22791"
       fx="30.685316"
       fy="42.261425"
       id="radialGradient6625"
       xlink:href="#linearGradient6607"
       gradientUnits="userSpaceOnUse"
       gradientTransform="matrix(3.9866298,0.1169977,0,-2.530036,-104.62676,112.74341)" />
    <linearGradient
       x1="23.238182"
       y1="12.158657"
       x2="29.892563"
       y2="26.354361"
       id="linearGradient6634"
       xlink:href="#linearGradient6628"
       gradientUnits="userSpaceOnUse" />
    <linearGradient
       x1="17.5"
       y1="25.587416"
       x2="28.555141"
       y2="25.699326"
       id="linearGradient6706"
       xlink:href="#linearGradient6700"
       gradientUnits="userSpaceOnUse" />
    <linearGradient
       x1="33.430557"
       y1="45.052155"
       x2="33.430557"
       y2="0.31037101"
       id="linearGradient6801"
       xlink:href="#linearGradient6643"
       gradientUnits="userSpaceOnUse" />
    <radialGradient
       cx="11.402097"
       cy="36.863068"
       r="10.69499"
       fx="11.402097"
       fy="36.863068"
       id="radialGradient7118"
       xlink:href="#linearGradient17123"
       gradientUnits="userSpaceOnUse"
       gradientTransform="matrix(1,0,0,0.330579,0,24.67693)" />
    <radialGradient
       inkscape:collect="always"
       xlink:href="#linearGradient17123"
       id="radialGradient3606"
       gradientUnits="userSpaceOnUse"
       gradientTransform="matrix(1,0,0,0.330579,0,24.67693)"
       cx="11.402097"
       cy="36.863068"
       fx="11.402097"
       fy="36.863068"
       r="10.69499" />
    <linearGradient
       inkscape:collect="always"
       xlink:href="#linearGradient2793"
       id="linearGradient3608"
       gradientUnits="userSpaceOnUse"
       gradientTransform="matrix(0.90625,0,0,1,-65.921875,19)"
       x1="78.5"
       y1="-4.0065207"
       x2="78.5"
       y2="14.00099" />
    <linearGradient
       inkscape:collect="always"
       xlink:href="#linearGradient5533"
       id="linearGradient3610"
       gradientUnits="userSpaceOnUse"
       gradientTransform="matrix(0.90625,0,0,1,-65.921875,19)"
       x1="80.0625"
       y1="14"
       x2="80.0625"
       y2="-4.0087729" />
    <linearGradient
       inkscape:collect="always"
       xlink:href="#linearGradient6531"
       id="linearGradient3612"
       gradientUnits="userSpaceOnUse"
       x1="3.8448932"
       y1="15.561477"
       x2="3.8448932"
       y2="39.884338" />
    <linearGradient
       inkscape:collect="always"
       xlink:href="#linearGradient6546"
       id="linearGradient3614"
       gradientUnits="userSpaceOnUse"
       gradientTransform="translate(-70,2)"
       x1="80.693359"
       y1="31.561478"
       x2="77.125"
       y2="14" />
    <radialGradient
       inkscape:collect="always"
       xlink:href="#linearGradient6633"
       id="radialGradient3616"
       gradientUnits="userSpaceOnUse"
       gradientTransform="matrix(0.7132478,0.5221478,-0.9280778,1.1784895,22.517143,-6.7083001)"
       cx="9.3203983"
       cy="18.817093"
       fx="9.3203983"
       fy="18.817093"
       r="12.5" />
    <linearGradient
       inkscape:collect="always"
       xlink:href="#linearGradient6627"
       id="linearGradient3618"
       gradientUnits="userSpaceOnUse"
       gradientTransform="matrix(0.9114584,0,0,0.8787879,2.7005208,4.6666545)"
       x1="7.75"
       y1="33.046577"
       x2="4.6431866"
       y2="12.063652" />
    <radialGradient
       inkscape:collect="always"
       xlink:href="#linearGradient6651"
       id="radialGradient3620"
       gradientUnits="userSpaceOnUse"
       gradientTransform="matrix(-0.2432942,0,0,-1.2543129,25.221399,61.870636)"
       cx="23.986883"
       cy="27.053167"
       fx="23.986883"
       fy="27.053167"
       r="7.75" />
    <linearGradient
       inkscape:collect="always"
       xlink:href="#linearGradient6379"
       id="linearGradient3622"
       gradientUnits="userSpaceOnUse"
       gradientTransform="matrix(0.6666667,0,0,1,2,-1)"
       x1="20.226221"
       y1="20.33363"
       x2="11.4375"
       y2="21.75" />
    <linearGradient
       inkscape:collect="always"
       xlink:href="#linearGradient6573"
       id="linearGradient3624"
       gradientUnits="userSpaceOnUse"
       x1="12.197592"
       y1="9.2597418"
       x2="12.197592"
       y2="47.496857" />
    <radialGradient
       inkscape:collect="always"
       xlink:href="#linearGradient6667"
       id="radialGradient3626"
       gradientUnits="userSpaceOnUse"
       gradientTransform="matrix(1.7346265,-0.1698771,0.327755,3.6175226,-27.429343,-73.69679)"
       cx="23.164974"
       cy="30.23279"
       fx="23.164974"
       fy="30.23279"
       r="8.1890125" />
    <linearGradient
       inkscape:collect="always"
       xlink:href="#linearGradient6643"
       id="linearGradient3628"
       gradientUnits="userSpaceOnUse"
       x1="33.430557"
       y1="45.052155"
       x2="33.430557"
       y2="0.31037101" />
    <radialGradient
       inkscape:collect="always"
       xlink:href="#linearGradient6589"
       id="radialGradient3630"
       gradientUnits="userSpaceOnUse"
       gradientTransform="matrix(1.3093938,0,0,1.5604932,-8.3886376,-9.784483)"
       cx="20.8839"
       cy="20.434256"
       fx="20.8839"
       fy="20.434256"
       r="3.9999843" />
    <radialGradient
       inkscape:collect="always"
       xlink:href="#linearGradient6607"
       id="radialGradient3632"
       gradientUnits="userSpaceOnUse"
       gradientTransform="matrix(3.9866298,0.1169977,0,-2.530036,-104.62676,112.74341)"
       cx="30.685316"
       cy="42.261425"
       fx="30.685316"
       fy="42.261425"
       r="8.22791" />
    <linearGradient
       inkscape:collect="always"
       xlink:href="#linearGradient6628"
       id="linearGradient3634"
       gradientUnits="userSpaceOnUse"
       x1="23.238182"
       y1="12.158657"
       x2="29.892563"
       y2="26.354361" />
    <linearGradient
       inkscape:collect="always"
       xlink:href="#linearGradient6700"
       id="linearGradient3636"
       gradientUnits="userSpaceOnUse"
       x1="17.5"
       y1="25.587416"
       x2="28.555141"
       y2="25.699326" />
  </defs>
  <g
     id="layer3"
     style="display:none"
     transform="translate(0,-8)">
    <path
       d="m -8.21875,10.5 -12,12 12,12 0,-24 z"
       id="path7288"
       style="opacity:0.83011588;fill:url(#radialGradient8199);fill-opacity:1;fill-rule:evenodd;stroke:none;display:inline"
       inkscape:connector-curvature="0" />
    <path
       d="m -7,10.5 -12,12 12,12 0,-24 z"
       id="path2791"
       style="opacity:0.76833975;fill:none;stroke:url(#linearGradient6393);stroke-width:1px;stroke-linecap:butt;stroke-linejoin:miter;stroke-opacity:1;display:inline"
       inkscape:connector-curvature="0" />
    <path
       d="m 19.375,9 c -0.174356,0.053023 -0.30606,0.1967002 -0.34375,0.375 -0.703448,2.579311 -2.426833,3.586638 -4.6875,5.09375 -2.260667,1.507112 -4.9844612,3.474121 -7.28125,7.8125 -0.06718,0.138096 -0.06718,0.299404 0,0.4375 2.2967888,4.338379 5.020583,6.305388 7.28125,7.8125 2.260667,1.507112 3.984052,2.514439 4.6875,5.09375 0.07934,0.220992 0.301756,0.357016 0.534629,0.326968 C 19.798752,35.92192 19.979353,35.733894 20,35.5 l 0,-26 C 20.005,9.3425939 19.935556,9.1920293 19.812581,9.0936489 19.689605,8.9952685 19.527469,8.9605689 19.375,9 z"
       transform="translate(-42,0)"
       id="path21580"
       style="opacity:0.63320462;fill:#fce94f;fill-opacity:1;fill-rule:evenodd;stroke:none;display:inline"
       inkscape:connector-curvature="0" />
    <path
       d="M -47.5,22.5 -20,-8 -20,56 -47.5,22.5 z"
       id="path21676"
       style="fill:none;stroke:#000000;stroke-width:1px;stroke-linecap:butt;stroke-linejoin:miter;stroke-opacity:1;display:inline"
       inkscape:connector-curvature="0" />
    <path
       d="m 23.6875,21.84375 a 2.84375,2.84375 0 1 1 -5.6875,0 2.84375,2.84375 0 1 1 5.6875,0 z"
       transform="matrix(7.990397,0,0,7.990397,-220.7725,-152.0403)"
       id="path21678"
       style="fill:url(#radialGradient21684);fill-opacity:1;stroke:#204a87;stroke-width:0.12515022;stroke-linecap:round;stroke-linejoin:round;stroke-miterlimit:4;stroke-opacity:1;stroke-dasharray:none;stroke-dashoffset:1.20000057;display:inline"
       inkscape:connector-curvature="0" />
    <path
       d="m 23.6875,21.84375 a 2.84375,2.84375 0 1 1 -5.6875,0 2.84375,2.84375 0 1 1 5.6875,0 z"
       transform="matrix(5.528848,0,0,5.528848,-169.4646,-98.27085)"
       id="path21680"
       style="fill:url(#radialGradient21686);fill-opacity:1;stroke:#204a87;stroke-width:0.18086948;stroke-linecap:round;stroke-linejoin:round;stroke-miterlimit:4;stroke-opacity:1;stroke-dasharray:none;stroke-dashoffset:1.20000057;display:inline"
       inkscape:connector-curvature="0" />
    <path
       d="m 23.6875,21.84375 a 2.84375,2.84375 0 1 1 -5.6875,0 2.84375,2.84375 0 1 1 5.6875,0 z"
       transform="matrix(3.418962,0,0,3.418962,-125.4867,-52.18304)"
       id="path21682"
       style="fill:url(#radialGradient21688);fill-opacity:1;stroke:#204a87;stroke-width:0.29248634;stroke-linecap:round;stroke-linejoin:round;stroke-miterlimit:4;stroke-opacity:1;stroke-dasharray:none;stroke-dashoffset:1.20000057;display:inline"
       inkscape:connector-curvature="0" />
  </g>
  <g
     id="g3579"
     transform="translate(0.08578726,3.9999999)">
    <g
       transform="matrix(0.99823623,0,0,1,-1.5130884e-4,-8)"
       style="display:inline"
       id="layer1">
      <path
         inkscape:connector-curvature="0"
         style="opacity:0.2;fill:url(#radialGradient3606);fill-opacity:1;stroke:none"
         id="path16236"
         transform="matrix(1.5365906,0,0,2.4199734,-1.1723206,-56.384863)"
         d="m 22.097087,36.863068 a 10.69499,3.5355351 0 1 1 -21.38998041,0 10.69499,3.5355351 0 1 1 21.38998041,0 z" />
      <path
         inkscape:connector-curvature="0"
         style="fill:#2e3436;fill-opacity:1;stroke:#555753;stroke-width:1.30267787;stroke-linecap:round;stroke-linejoin:miter;stroke-miterlimit:4;stroke-opacity:1;stroke-dasharray:none;stroke-dashoffset:0"
         id="path5330"
         transform="matrix(0.75,0,0,0.7857143,1.5,4.357156)"
         d="m 8,25 a 4,7 0 1 1 -8,0 4,7 0 1 1 8,0 z" />
      <path
         inkscape:connector-curvature="0"
         style="fill:#babdb6;fill-opacity:1;stroke:none;display:inline"
         id="path6659"
         transform="translate(-1.53125,0.65625)"
         d="m 4.5,20.75 a 0.75,0.75 0 1 1 -1.5,0 0.75,0.75 0 1 1 1.5,0 z" />
      <path
         inkscape:connector-curvature="0"
         style="fill:url(#linearGradient3608);fill-opacity:1;stroke:url(#linearGradient3610);stroke-width:1;stroke-linecap:round;stroke-linejoin:miter;stroke-miterlimit:4;stroke-opacity:1;stroke-dasharray:none;stroke-dashoffset:0"
         id="path2766"
         d="m 6.125,15.500014 c -2.0009964,0 -3.6249991,3.808022 -3.625,8.5 0,4.691977 1.6240036,8.500001 3.625,8.5 l 3.625,0 c 2.000996,0 3.625,-3.808024 3.625,-8.5 0,-4.691977 -1.624004,-8.5 -3.625,-8.5 l -3.625,0 z" />
      <path
         inkscape:connector-curvature="0"
         style="opacity:0.6;fill:none;stroke:url(#linearGradient3612);stroke-width:1.0577718;stroke-linecap:round;stroke-linejoin:miter;stroke-miterlimit:4;stroke-opacity:1;stroke-dasharray:none;stroke-dashoffset:0;display:inline"
         id="path5556"
         transform="matrix(0.89375,0,0,1,1.265625,2)"
         d="M 5.5,14.5 C 4.974,14.5 4.2339165,15.045895 3.59375,16.40625 2.9535835,17.766605 2.5000005,19.78201 2.5,22 c 0,2.21799 0.4535834,4.233394 1.09375,5.59375 C 4.2339166,28.954106 4.9740003,29.5 5.5,29.5 l 4,0 c 0.525999,0 1.266083,-0.545894 1.90625,-1.90625 C 12.046417,26.233394 12.5,24.217988 12.5,22 12.5,19.782012 12.046417,17.766606 11.40625,16.40625 10.766083,15.045894 10.026,14.5 9.5,14.5 l -4,0 z" />
      <path
         inkscape:connector-curvature="0"
         style="fill:url(#linearGradient3614);fill-opacity:1;stroke:none;display:inline"
         id="path6556"
         d="M 9.696925,16 C 7.656226,16 6.000001,19.57702 6,23.984375 c 0,4.407354 1.656226,7.984376 3.696925,7.984375 l 0.6374,0 c 2.040699,0 3.696925,-3.577022 3.696925,-7.984375 C 14.03125,19.577021 12.375024,16 10.334325,16 l -0.6374,0 z" />
      <path
         inkscape:connector-curvature="0"
         style="fill:url(#radialGradient3616);fill-opacity:1;stroke:url(#linearGradient3618);stroke-width:1;stroke-linecap:round;stroke-linejoin:miter;stroke-miterlimit:4;stroke-opacity:1;stroke-dasharray:none;stroke-dashoffset:0"
         id="path1871"
         d="m 8.6250003,24 c 0,9.227273 9.1869747,14.499999 14.8750017,14.499999 3.9375,0 7,-6.496003 7,-14.499999 0,-8.003997 -3.0625,-14.4999999 -7,-14.4999999 C 17.811975,9.5000001 8.6250003,14.772728 8.6250003,24 z" />
      <path
         inkscape:connector-curvature="0"
         style="fill:url(#radialGradient3620);fill-opacity:1;stroke:none;display:inline"
         id="path6649"
         transform="matrix(1.3225807,0,0,1.026415,-12.145162,-4.6754711)"
         d="m 33,27.9375 a 7.75,16.5625 0 1 1 -15.5,0 7.75,16.5625 0 1 1 15.5,0 z" />
      <path
         inkscape:connector-curvature="0"
         style="opacity:0.7335907;fill:url(#linearGradient3622);fill-opacity:1;fill-rule:evenodd;stroke:none;display:inline"
         id="path6639"
         d="m 16,13.375 c -2.583333,1.394678 -5.458333,4.195921 -8,8.125 2.69956,-1.126087 5.491292,-1.960473 8,-1.75 l 0,-6.375 z" />
      <path
         inkscape:connector-curvature="0"
         style="opacity:0.58620689;fill:none;stroke:url(#linearGradient3624);stroke-width:1.12734473;stroke-linecap:round;stroke-linejoin:miter;stroke-miterlimit:4;stroke-opacity:1;stroke-dasharray:none;stroke-dashoffset:0;display:inline"
         id="path6567"
         transform="matrix(0.9034091,0,0,0.8709678,2.8494318,4.8387095)"
         d="m 22.8125,6.5 c -2.795799,1e-7 -6.724012,1.4333131 -9.84375,4.09375 C 9.8490125,13.254187 7.5,17.073741 7.5,22 c 0,4.92626 2.3490125,8.745813 5.46875,11.40625 3.119737,2.660437 7.047951,4.09375 9.84375,4.09375 1.582499,0 3.232771,-1.443735 4.53125,-4.25 C 28.642229,30.443735 29.5,26.429214 29.5,22 29.5,17.570787 28.642229,13.556265 27.34375,10.75 26.045271,7.943735 24.394999,6.5 22.8125,6.5 z" />
      <path
         inkscape:connector-curvature="0"
         style="fill:url(#radialGradient3626);fill-opacity:1;stroke:url(#linearGradient3628);stroke-width:0.83240509;stroke-linecap:round;stroke-linejoin:miter;stroke-miterlimit:4;stroke-opacity:1;stroke-dasharray:none;stroke-dashoffset:0"
         id="path1873"
         transform="matrix(1.2258059,0,0,1.1773585,-8.9515943,-8.892453)"
         d="m 33,27.9375 a 7.75,16.5625 0 1 1 -15.5,0 7.75,16.5625 0 1 1 15.5,0 z" />
      <path
         inkscape:connector-curvature="0"
         style="fill:url(#radialGradient3630);fill-opacity:1;stroke:#555753;stroke-width:1.00000048;stroke-linecap:round;stroke-linejoin:miter;stroke-miterlimit:4;stroke-opacity:1;stroke-dashoffset:0"
         id="path3672"
         d="m 21.616117,24.000008 c 0,2.483997 -2.382932,4.499982 -4.066383,4.499982 -1.683453,0 -3.049733,-2.015998 -3.049733,-4.499995 0,-2.483997 1.36628,-4.499995 3.049733,-4.499995 1.683451,0 4.066383,2.01601 4.066383,4.500008 z" />
      <path
         inkscape:connector-curvature="0"
         style="fill:url(#radialGradient3632);fill-opacity:1;stroke:none;display:inline"
         id="path6605"
         d="m 22,5 c -2.632448,-1e-7 -4.858028,2.2498264 -6.4375,5.6875 -1.579472,3.437673 -2.53125,8.142625 -2.53125,13.3125 0,5.169874 0.951778,9.874826 2.53125,13.3125 C 17.141972,40.750172 19.367552,43 22,43 c 2.632449,0 4.858028,-2.249827 6.4375,-5.6875 0.98717,-2.148547 1.737111,-4.811219 2.15625,-7.75 0.01322,-0.09267 0.01868,-0.187986 0.03125,-0.28125 0.07641,-0.566948 0.135731,-1.131492 0.1875,-1.71875 0.05087,-0.546414 0.09764,-1.093036 0.125,-1.65625 0.0014,-0.03096 -0.0014,-0.06274 0,-0.09375 0.02747,-0.595848 0.03125,-1.200746 0.03125,-1.8125 0,-0.644361 -8.1e-4,-1.279618 -0.03125,-1.90625 C 30.91165,21.537127 30.86024,20.979033 30.8125,20.4375 30.76073,19.850242 30.701405,19.285698 30.625,18.71875 30.6115,18.62356 30.60796,18.532009 30.59375,18.4375 30.174611,15.498719 29.42467,12.836046 28.4375,10.6875 26.858028,7.249826 24.632449,5 22,5 z m 0.5,2 c 1.922274,2e-7 3.780368,1.7656497 5.1875,4.84375 0.879457,1.923812 1.576879,4.335367 1.96875,7.03125 0.07837,0.539177 0.133595,1.09521 0.1875,1.65625 0.04746,0.525408 0.09908,1.053403 0.125,1.59375 0.03188,0.620494 0.0625,1.236156 0.0625,1.875 0,0.595745 -0.03472,1.170104 -0.0625,1.75 -0.0018,0.04097 0.002,0.08411 0,0.125 -0.02757,0.536772 -0.075,1.073299 -0.125,1.59375 -0.05391,0.561039 -0.109126,1.117073 -0.1875,1.65625 -0.391871,2.695883 -1.089293,5.107438 -1.96875,7.03125 C 26.280368,39.23435 24.422274,41 22.5,41 20.577727,40.999998 18.719632,39.234351 17.3125,36.15625 15.905367,33.078149 14.96875,28.765963 14.96875,24 c 0,-4.765964 0.936618,-9.07815 2.34375,-12.15625 C 18.719631,8.7656496 20.577727,7 22.5,7 z" />
      <path
         inkscape:connector-curvature="0"
         style="opacity:0.36637932;fill:none;stroke:url(#linearGradient3634);stroke-width:1.05419946;stroke-linecap:round;stroke-linejoin:miter;stroke-miterlimit:4;stroke-opacity:1;stroke-dasharray:none;stroke-dashoffset:0;display:inline"
         id="path6615"
         transform="matrix(0.9032258,0,0,0.9962264,-0.3064529,-3.8320749)"
         d="m 33,27.9375 a 7.75,16.5625 0 1 1 -15.5,0 7.75,16.5625 0 1 1 15.5,0 z" />
      <path
         inkscape:connector-curvature="0"
         style="fill:#ffffff;fill-opacity:1;stroke:none;display:inline"
         id="path6661"
         transform="translate(-16,5.3125)"
         d="m 21.5,13.5 a 1,1 0 1 1 -2,0 1,1 0 1 1 2,0 z" />
      <path
         inkscape:connector-curvature="0"
         style="opacity:0.65517243;fill:none;stroke:url(#linearGradient3636);stroke-width:0.90347946;stroke-linecap:round;stroke-linejoin:miter;stroke-miterlimit:4;stroke-opacity:1;stroke-dasharray:none;stroke-dashoffset:0;display:inline"
         id="path6698"
         transform="matrix(1.0967748,0,0,1.1169811,-5.6935592,-7.2056602)"
         d="m 33,27.9375 a 7.75,16.5625 0 1 1 -15.5,0 7.75,16.5625 0 1 1 15.5,0 z" />
      <path
         inkscape:connector-curvature="0"
         style="fill:#ffffff;fill-opacity:1;stroke:none;display:inline"
         id="path5501"
         transform="translate(-5,-1.875)"
         d="m 21.5,13.5 a 1,1 0 1 1 -2,0 1,1 0 1 1 2,0 z" />
    </g>
    <g
       transform="matrix(0.99823623,0,0,1,-1.5130884e-4,-8)"
       id="layer2">
      <g
         style="display:inline"
         id="layer4"
         transform="matrix(1.0828519,0,0,1.0830642,1.5587564,-0.36757)">
        <g
           id="g4694"
           transform="translate(-2,0)">
          <rect
             style="fill:#ef2929;fill-opacity:1;stroke:#a40000;stroke-width:0.92015547;stroke-linecap:round;stroke-linejoin:round;stroke-miterlimit:4;stroke-opacity:1;stroke-dasharray:none;stroke-dashoffset:1.20000057;display:inline"
             id="rect2021"
             y="16.498245"
             x="31.498245"
             ry="1.4868355"
             rx="1.4868355"
             height="12.00351"
             width="12.00351" />
          <rect
             style="opacity:0.3;fill:none;stroke:#ffffff;stroke-width:0.92339665;stroke-linecap:round;stroke-linejoin:round;stroke-miterlimit:4;stroke-opacity:1;stroke-dasharray:none;stroke-dashoffset:1.20000057;display:inline"
             id="rect3795"
             y="17.420549"
             x="32.420815"
             ry="0.49373779"
             rx="0.49383482"
             height="10.156369"
             width="10.158366" />
          <path
             inkscape:connector-curvature="0"
             style="fill:none;stroke:#ffffff;stroke-width:1.38509536;stroke-linecap:round;stroke-linejoin:miter;stroke-miterlimit:4;stroke-opacity:1;stroke-dasharray:none"
             id="path4682"
             d="m 35,20 5,5" />
          <path
             inkscape:connector-curvature="0"
             style="fill:none;stroke:#ffffff;stroke-width:1.38509536;stroke-linecap:round;stroke-linejoin:miter;stroke-miterlimit:4;stroke-opacity:1;stroke-dasharray:none;display:inline"
             id="path4684"
             d="m 40,20 -5,5" />
        </g>
      </g>
    </g>
  </g>
</svg>
